<?xml version="1.0" encoding="UTF-8" standalone="no"?><svg xmlns="http://www.w3.org/2000/svg" xmlns:xlink="http://www.w3.org/1999/xlink" clip-rule="evenodd" stroke-miterlimit="4.00" viewBox="0 0 1024 768"><desc>SVG generated by Keynote</desc><defs></defs><g transform="matrix(1.00, 0.00, -0.00, -1.00, 0.0, 768.0)"><path d="M 0.0 768.0 L 1024.0 768.0 L 1024.0 0.0 L 0.0 0.0 Z M 0.0 768.0 " fill="#000000"></path><text xml:space="preserve" font-family="Helvetica-Light" font-size="70.4" fill="#FEFFFF" transform="matrix(1.00, 0.00, -0.00, -1.00, 145.0, 567.0)">1</text><text xml:space="preserve" font-family="Helvetica-Light" font-size="70.4" fill="#FEFFFF" transform="matrix(1.00, 0.00, -0.00, -1.00, 184.1, 567.0)">2</text><text xml:space="preserve" font-family="Helvetica-Light" font-size="70.4" fill="#FEFFFF" transform="matrix(1.00, 0.00, -0.00, -1.00, 223.3, 567.0)"> </text><text xml:space="preserve" font-family="Helvetica-Light" font-size="70.4" fill="#FEFFFF" transform="matrix(1.00, 0.00, -0.00, -1.00, 242.9, 567.0)">W</text><text xml:space="preserve" font-family="Helvetica-Light" font-size="70.4" fill="#FEFFFF" transform="matrix(1.00, 0.00, -0.00, -1.00, 302.8, 567.0)">a</text><text xml:space="preserve" font-family="Helvetica-Light" font-size="70.4" fill="#FEFFFF" transform="matrix(1.00, 0.00, -0.00, -1.00, 342.0, 567.0)">y</text><text xml:space="preserve" font-family="Helvetica-Light" font-size="70.4" fill="#FEFFFF" transform="matrix(1.00, 0.00, -0.00, -1.00, 377.2, 567.0)">s</text><text xml:space="preserve" font-family="Helvetica-Light" font-size="70.4" fill="#FEFFFF" transform="matrix(1.00, 0.00, -0.00, -1.00, 412.4, 567.0)"> </text><text xml:space="preserve" font-family="Helvetica-Light" font-size="70.4" fill="#FEFFFF" transform="matrix(1.00, 0.00, -0.00, -1.00, 432.0, 567.0)">t</text><text xml:space="preserve" font-family="Helvetica-Light" font-size="70.4" fill="#FEFFFF" transform="matrix(1.00, 0.00, -0.00, -1.00, 451.5, 567.0)">o</text><text xml:space="preserve" font-family="Helvetica-Light" font-size="70.4" fill="#FEFFFF" transform="matrix(1.00, 0.00, -0.00, -1.00, 490.7, 567.0)"> </text><text xml:space="preserve" font-family="Helvetica-Light" font-size="70.4" fill="#FEFFFF" transform="matrix(1.00, 0.00, -0.00, -1.00, 510.2, 567.0)">P</text><text xml:space="preserve" font-family="Helvetica-Light" font-size="70.4" fill="#FEFFFF" transform="matrix(1.00, 0.00, -0.00, -1.00, 553.2, 567.0)">h</text><text xml:space="preserve" font-family="Helvetica-Light" font-size="70.4" fill="#FEFFFF" transform="matrix(1.00, 0.00, -0.00, -1.00, 592.4, 567.0)">o</text><text xml:space="preserve" font-family="Helvetica-Light" font-size="70.4" fill="#FEFFFF" transform="matrix(1.00, 0.00, -0.00, -1.00, 631.5, 567.0)">t</text><text xml:space="preserve" font-family="Helvetica-Light" font-size="70.4" fill="#FEFFFF" transform="matrix(1.00, 0.00, -0.00, -1.00, 651.1, 567.0)">o</text><text xml:space="preserve" font-family="Helvetica-Light" font-size="70.4" fill="#FEFFFF" transform="matrix(1.00, 0.00, -0.00, -1.00, 690.2, 567.0)">g</text><text xml:space="preserve" font-family="Helvetica-Light" font-size="70.4" fill="#FEFFFF" transform="matrix(1.00, 0.00, -0.00, -1.00, 733.3, 567.0)">r</text><text xml:space="preserve" font-family="Helvetica-Light" font-size="70.4" fill="#FEFFFF" transform="matrix(1.00, 0.00, -0.00, -1.00, 756.7, 567.0)">a</text><text xml:space="preserve" font-family="Helvetica-Light" font-size="70.4" fill="#FEFFFF" transform="matrix(1.00, 0.00, -0.00, -1.00, 795.8, 567.0)">p</text><text xml:space="preserve" font-family="Helvetica-Light" font-size="70.4" fill="#FEFFFF" transform="matrix(1.00, 0.00, -0.00, -1.00, 838.9, 567.0)">h</text><text xml:space="preserve" font-family="Helvetica-Light" font-size="70.4" fill="#FEFFFF" transform="matrix(1.00, 0.00, -0.00, -1.00, 878.0, 567.0)"> </text><text xml:space="preserve" font-family="Helvetica-Light" font-size="70.4" fill="#FEFFFF" transform="matrix(1.00, 0.00, -0.00, -1.00, 187.0, 483.0)">P</text><text xml:space="preserve" font-family="Helvetica-Light" font-size="70.4" fill="#FEFFFF" transform="matrix(1.00, 0.00, -0.00, -1.00, 230.0, 483.0)">e</text><text xml:space="preserve" font-family="Helvetica-Light" font-size="70.4" fill="#FEFFFF" transform="matrix(1.00, 0.00, -0.00, -1.00, 269.2, 483.0)">o</text><text xml:space="preserve" font-family="Helvetica-Light" font-size="70.4" fill="#FEFFFF" transform="matrix(1.00, 0.00, -0.00, -1.00, 308.3, 483.0)">p</text><text xml:space="preserve" font-family="Helvetica-Light" font-size="70.4" fill="#FEFFFF" transform="matrix(1.00, 0.00, -0.00, -1.00, 351.3, 483.0)">l</text><text xml:space="preserve" font-family="Helvetica-Light" font-size="70.4" fill="#FEFFFF" transform="matrix(1.00, 0.00, -0.00, -1.00, 366.9, 483.0)">e</text><text xml:space="preserve" font-family="Helvetica-Light" font-size="70.4" fill="#FEFFFF" transform="matrix(1.00, 0.00, -0.00, -1.00, 406.1, 483.0)"> </text><text xml:space="preserve" font-family="Helvetica-Light" font-size="70.4" fill="#FEFFFF" transform="matrix(1.00, 0.00, -0.00, -1.00, 425.7, 483.0)">W</text><text xml:space="preserve" font-family="Helvetica-Light" font-size="70.4" fill="#FEFFFF" transform="matrix(1.00, 0.00, -0.00, -1.00, 488.2, 483.0)">h</text><text xml:space="preserve" font-family="Helvetica-Light" font-size="70.4" fill="#FEFFFF" transform="matrix(1.00, 0.00, -0.00, -1.00, 527.4, 483.0)">o</text><text xml:space="preserve" font-family="Helvetica-Light" font-size="70.4" fill="#FEFFFF" transform="matrix(1.00, 0.00, -0.00, -1.00, 566.5, 483.0)"> </text><text xml:space="preserve" font-family="Helvetica-Light" font-size="70.4" fill="#FEFFFF" transform="matrix(1.00, 0.00, -0.00, -1.00, 586.1, 483.0)">N</text><text xml:space="preserve" font-family="Helvetica-Light" font-size="70.4" fill="#FEFFFF" transform="matrix(1.00, 0.00, -0.00, -1.00, 636.9, 483.0)">e</text><text xml:space="preserve" font-family="Helvetica-Light" font-size="70.4" fill="#FEFFFF" transform="matrix(1.00, 0.00, -0.00, -1.00, 676.1, 483.0)">e</text><text xml:space="preserve" font-family="Helvetica-Light" font-size="70.4" fill="#FEFFFF" transform="matrix(1.00, 0.00, -0.00, -1.00, 715.2, 483.0)">d</text><text xml:space="preserve" font-family="Helvetica-Light" font-size="70.4" fill="#FEFFFF" transform="matrix(1.00, 0.00, -0.00, -1.00, 758.2, 483.0)"> </text><text xml:space="preserve" font-family="Helvetica-Light" font-size="70.4" fill="#FEFFFF" transform="matrix(1.00, 0.00, -0.00, -1.00, 777.8, 483.0)">t</text><text xml:space="preserve" font-family="Helvetica-Light" font-size="70.4" fill="#FEFFFF" transform="matrix(1.00, 0.00, -0.00, -1.00, 797.4, 483.0)">o</text><text xml:space="preserve" font-family="Helvetica-Light" font-size="70.4" fill="#FEFFFF" transform="matrix(1.00, 0.00, -0.00, -1.00, 836.5, 483.0)"> </text><text xml:space="preserve" font-family="Helvetica-Light" font-size="70.4" fill="#FEFFFF" transform="matrix(1.00, 0.00, -0.00, -1.00, 197.0, 399.0)">R</text><text xml:space="preserve" font-family="Helvetica-Light" font-size="70.4" fill="#FEFFFF" transform="matrix(1.00, 0.00, -0.00, -1.00, 244.0, 399.0)">e</text><text xml:space="preserve" font-family="Helvetica-Light" font-size="70.4" fill="#FEFFFF" transform="matrix(1.00, 0.00, -0.00, -1.00, 283.1, 399.0)">m</text><text xml:space="preserve" font-family="Helvetica-Light" font-size="70.4" fill="#FEFFFF" transform="matrix(1.00, 0.00, -0.00, -1.00, 341.7, 399.0)">a</text><text xml:space="preserve" font-family="Helvetica-Light" font-size="70.4" fill="#FEFFFF" transform="matrix(1.00, 0.00, -0.00, -1.00, 380.9, 399.0)">i</text><text xml:space="preserve" font-family="Helvetica-Light" font-size="70.4" fill="#FEFFFF" transform="matrix(1.00, 0.00, -0.00, -1.00, 396.5, 399.0)">n</text><text xml:space="preserve" font-family="Helvetica-Light" font-size="70.4" fill="#FEFFFF" transform="matrix(1.00, 0.00, -0.00, -1.00, 435.7, 399.0)"> </text><text xml:space="preserve" font-family="Helvetica-Light" font-size="70.4" fill="#FEFFFF" transform="matrix(1.00, 0.00, -0.00, -1.00, 455.2, 399.0)">A</text><text xml:space="preserve" font-family="Helvetica-Light" font-size="70.4" fill="#FEFFFF" transform="matrix(1.00, 0.00, -0.00, -1.00, 502.2, 399.0)">n</text><text xml:space="preserve" font-family="Helvetica-Light" font-size="70.4" fill="#FEFFFF" transform="matrix(1.00, 0.00, -0.00, -1.00, 541.3, 399.0)">o</text><text xml:space="preserve" font-family="Helvetica-Light" font-size="70.4" fill="#FEFFFF" transform="matrix(1.00, 0.00, -0.00, -1.00, 580.5, 399.0)">n</text><text xml:space="preserve" font-family="Helvetica-Light" font-size="70.4" fill="#FEFFFF" transform="matrix(1.00, 0.00, -0.00, -1.00, 619.6, 399.0)">y</text><text xml:space="preserve" font-family="Helvetica-Light" font-size="70.4" fill="#FEFFFF" transform="matrix(1.00, 0.00, -0.00, -1.00, 654.8, 399.0)">m</text><text xml:space="preserve" font-family="Helvetica-Light" font-size="70.4" fill="#FEFFFF" transform="matrix(1.00, 0.00, -0.00, -1.00, 713.5, 399.0)">o</text><text xml:space="preserve" font-family="Helvetica-Light" font-size="70.4" fill="#FEFFFF" transform="matrix(1.00, 0.00, -0.00, -1.00, 752.6, 399.0)">u</text><text xml:space="preserve" font-family="Helvetica-Light" font-size="70.4" fill="#FEFFFF" transform="matrix(1.00, 0.00, -0.00, -1.00, 791.7, 399.0)">s</text><text xml:space="preserve" font-family="Helvetica-Light" font-size="22.7" fill="#FEFFFF" transform="matrix(1.00, 0.00, -0.00, -1.00, 412.0, 214.0)">S</text><text xml:space="preserve" font-family="Helvetica-Light" font-size="22.7" fill="#FEFFFF" transform="matrix(1.00, 0.00, -0.00, -1.00, 425.9, 214.0)">a</text><text xml:space="preserve" font-family="Helvetica-Light" font-size="22.7" fill="#FEFFFF" transform="matrix(1.00, 0.00, -0.00, -1.00, 438.5, 214.0)">n</text><text xml:space="preserve" font-family="Helvetica-Light" font-size="22.7" fill="#FEFFFF" transform="matrix(1.00, 0.00, -0.00, -1.00, 451.1, 214.0)">d</text><text xml:space="preserve" font-family="Helvetica-Light" font-size="22.7" fill="#FEFFFF" transform="matrix(1.00, 0.00, -0.00, -1.00, 465.0, 214.0)">e</text><text xml:space="preserve" font-family="Helvetica-Light" font-size="22.7" fill="#FEFFFF" transform="matrix(1.00, 0.00, -0.00, -1.00, 477.7, 214.0)">e</text><text xml:space="preserve" font-family="Helvetica-Light" font-size="22.7" fill="#FEFFFF" transform="matrix(1.00, 0.00, -0.00, -1.00, 490.3, 214.0)">p</text><text xml:space="preserve" font-family="Helvetica-Light" font-size="22.7" fill="#FEFFFF" transform="matrix(1.00, 0.00, -0.00, -1.00, 504.2, 214.0)"> </text><text xml:space="preserve" font-family="Helvetica-Light" font-size="22.7" fill="#FEFFFF" transform="matrix(1.00, 0.00, -0.00, -1.00, 510.5, 214.0)">J</text><text xml:space="preserve" font-family="Helvetica-Light" font-size="22.7" fill="#FEFFFF" transform="matrix(1.00, 0.00, -0.00, -1.00, 521.9, 214.0)">u</text><text xml:space="preserve" font-family="Helvetica-Light" font-size="22.7" fill="#FEFFFF" transform="matrix(1.00, 0.00, -0.00, -1.00, 534.5, 214.0)">n</text><text xml:space="preserve" font-family="Helvetica-Light" font-size="22.7" fill="#FEFFFF" transform="matrix(1.00, 0.00, -0.00, -1.00, 547.1, 214.0)">n</text><text xml:space="preserve" font-family="Helvetica-Light" font-size="22.7" fill="#FEFFFF" transform="matrix(1.00, 0.00, -0.00, -1.00, 559.7, 214.0)">a</text><text xml:space="preserve" font-family="Helvetica-Light" font-size="22.7" fill="#FEFFFF" transform="matrix(1.00, 0.00, -0.00, -1.00, 572.4, 214.0)">r</text><text xml:space="preserve" font-family="Helvetica-Light" font-size="22.7" fill="#FEFFFF" transform="matrix(1.00, 0.00, -0.00, -1.00, 579.9, 214.0)">k</text><text xml:space="preserve" font-family="Helvetica-Light" font-size="22.7" fill="#FEFFFF" transform="matrix(1.00, 0.00, -0.00, -1.00, 591.3, 214.0)">a</text><text xml:space="preserve" font-family="Helvetica-Light" font-size="22.7" fill="#FEFFFF" transform="matrix(1.00, 0.00, -0.00, -1.00, 603.9, 214.0)">r</text><text xml:space="preserve" font-family="Helvetica-Light" font-size="22.7" fill="#FEFFFF" transform="matrix(1.00, 0.00, -0.00, -1.00, 611.5, 214.0)"> </text><text xml:space="preserve" font-family="Helvetica-Light" font-size="22.7" fill="#FEFFFF" transform="matrix(1.00, 0.00, -0.00, -1.00, 321.0, 188.0)">C</text><text xml:space="preserve" font-family="Helvetica-Light" font-size="22.7" fill="#FEFFFF" transform="matrix(1.00, 0.00, -0.00, -1.00, 337.4, 188.0)">U</text><text xml:space="preserve" font-family="Helvetica-Light" font-size="22.7" fill="#FEFFFF" transform="matrix(1.00, 0.00, -0.00, -1.00, 353.8, 188.0)">N</text><text xml:space="preserve" font-family="Helvetica-Light" font-size="22.7" fill="#FEFFFF" transform="matrix(1.00, 0.00, -0.00, -1.00, 370.2, 188.0)">Y</text><text xml:space="preserve" font-family="Helvetica-Light" font-size="22.7" fill="#FEFFFF" transform="matrix(1.00, 0.00, -0.00, -1.00, 384.1, 188.0)"> </text><text xml:space="preserve" font-family="Helvetica-Light" font-size="22.7" fill="#FEFFFF" transform="matrix(1.00, 0.00, -0.00, -1.00, 390.4, 188.0)">G</text><text xml:space="preserve" font-family="Helvetica-Light" font-size="22.7" fill="#FEFFFF" transform="matrix(1.00, 0.00, -0.00, -1.00, 408.1, 188.0)">r</text><text xml:space="preserve" font-family="Helvetica-Light" font-size="22.7" fill="#FEFFFF" transform="matrix(1.00, 0.00, -0.00, -1.00, 415.7, 188.0)">a</text><text xml:space="preserve" font-family="Helvetica-Light" font-size="22.7" fill="#FEFFFF" transform="matrix(1.00, 0.00, -0.00, -1.00, 428.3, 188.0)">d</text><text xml:space="preserve" font-family="Helvetica-Light" font-size="22.7" fill="#FEFFFF" transform="matrix(1.00, 0.00, -0.00, -1.00, 442.2, 188.0)">u</text><text xml:space="preserve" font-family="Helvetica-Light" font-size="22.7" fill="#FEFFFF" transform="matrix(1.00, 0.00, -0.00, -1.00, 454.8, 188.0)">a</text><text xml:space="preserve" font-family="Helvetica-Light" font-size="22.7" fill="#FEFFFF" transform="matrix(1.00, 0.00, -0.00, -1.00, 467.4, 188.0)">t</text><text xml:space="preserve" font-family="Helvetica-Light" font-size="22.7" fill="#FEFFFF" transform="matrix(1.00, 0.00, -0.00, -1.00, 473.7, 188.0)">e</text><text xml:space="preserve" font-family="Helvetica-Light" font-size="22.7" fill="#FEFFFF" transform="matrix(1.00, 0.00, -0.00, -1.00, 486.4, 188.0)"> </text><text xml:space="preserve" font-family="Helvetica-Light" font-size="22.7" fill="#FEFFFF" transform="matrix(1.00, 0.00, -0.00, -1.00, 492.7, 188.0)">S</text><text xml:space="preserve" font-family="Helvetica-Light" font-size="22.7" fill="#FEFFFF" transform="matrix(1.00, 0.00, -0.00, -1.00, 506.6, 188.0)">c</text><text xml:space="preserve" font-family="Helvetica-Light" font-size="22.7" fill="#FEFFFF" transform="matrix(1.00, 0.00, -0.00, -1.00, 519.2, 188.0)">h</text><text xml:space="preserve" font-family="Helvetica-Light" font-size="22.7" fill="#FEFFFF" transform="matrix(1.00, 0.00, -0.00, -1.00, 531.8, 188.0)">o</text><text xml:space="preserve" font-family="Helvetica-Light" font-size="22.7" fill="#FEFFFF" transform="matrix(1.00, 0.00, -0.00, -1.00, 544.5, 188.0)">o</text><text xml:space="preserve" font-family="Helvetica-Light" font-size="22.7" fill="#FEFFFF" transform="matrix(1.00, 0.00, -0.00, -1.00, 557.1, 188.0)">l</text><text xml:space="preserve" font-family="Helvetica-Light" font-size="22.7" fill="#FEFFFF" transform="matrix(1.00, 0.00, -0.00, -1.00, 562.2, 188.0)"> </text><text xml:space="preserve" font-family="Helvetica-Light" font-size="22.7" fill="#FEFFFF" transform="matrix(1.00, 0.00, -0.00, -1.00, 568.5, 188.0)">o</text><text xml:space="preserve" font-family="Helvetica-Light" font-size="22.7" fill="#FEFFFF" transform="matrix(1.00, 0.00, -0.00, -1.00, 581.1, 188.0)">f</text><text xml:space="preserve" font-family="Helvetica-Light" font-size="22.7" fill="#FEFFFF" transform="matrix(1.00, 0.00, -0.00, -1.00, 587.4, 188.0)"> </text><text xml:space="preserve" font-family="Helvetica-Light" font-size="22.7" fill="#FEFFFF" transform="matrix(1.00, 0.00, -0.00, -1.00, 593.7, 188.0)">J</text><text xml:space="preserve" font-family="Helvetica-Light" font-size="22.7" fill="#FEFFFF" transform="matrix(1.00, 0.00, -0.00, -1.00, 605.1, 188.0)">o</text><text xml:space="preserve" font-family="Helvetica-Light" font-size="22.7" fill="#FEFFFF" transform="matrix(1.00, 0.00, -0.00, -1.00, 617.7, 188.0)">u</text><text xml:space="preserve" font-family="Helvetica-Light" font-size="22.7" fill="#FEFFFF" transform="matrix(1.00, 0.00, -0.00, -1.00, 630.4, 188.0)">r</text><text xml:space="preserve" font-family="Helvetica-Light" font-size="22.7" fill="#FEFFFF" transform="matrix(1.00, 0.00, -0.00, -1.00, 638.3, 188.0)">n</text><text xml:space="preserve" font-family="Helvetica-Light" font-size="22.7" fill="#FEFFFF" transform="matrix(1.00, 0.00, -0.00, -1.00, 651.0, 188.0)">a</text><text xml:space="preserve" font-family="Helvetica-Light" font-size="22.7" fill="#FEFFFF" transform="matrix(1.00, 0.00, -0.00, -1.00, 663.6, 188.0)">l</text><text xml:space="preserve" font-family="Helvetica-Light" font-size="22.7" fill="#FEFFFF" transform="matrix(1.00, 0.00, -0.00, -1.00, 668.6, 188.0)">i</text><text xml:space="preserve" font-family="Helvetica-Light" font-size="22.7" fill="#FEFFFF" transform="matrix(1.00, 0.00, -0.00, -1.00, 673.7, 188.0)">s</text><text xml:space="preserve" font-family="Helvetica-Light" font-size="22.7" fill="#FEFFFF" transform="matrix(1.00, 0.00, -0.00, -1.00, 685.0, 188.0)">m</text><text xml:space="preserve" font-family="Helvetica-Light" font-size="22.7" fill="#FEFFFF" transform="matrix(1.00, 0.00, -0.00, -1.00, 704.0, 188.0)"> </text><text xml:space="preserve" font-family="Helvetica-Light" font-size="22.7" fill="#FEFFFF" transform="matrix(1.00, 0.00, -0.00, -1.00, 441.0, 162.0)">A</text><text xml:space="preserve" font-family="Helvetica-Light" font-size="22.7" fill="#FEFFFF" transform="matrix(1.00, 0.00, -0.00, -1.00, 456.2, 162.0)">p</text><text xml:space="preserve" font-family="Helvetica-Light" font-size="22.7" fill="#FEFFFF" transform="matrix(1.00, 0.00, -0.00, -1.00, 470.0, 162.0)">r</text><text xml:space="preserve" font-family="Helvetica-Light" font-size="22.7" fill="#FEFFFF" transform="matrix(1.00, 0.00, -0.00, -1.00, 477.6, 162.0)">i</text><text xml:space="preserve" font-family="Helvetica-Light" font-size="22.7" fill="#FEFFFF" transform="matrix(1.00, 0.00, -0.00, -1.00, 482.6, 162.0)">l</text><text xml:space="preserve" font-family="Helvetica-Light" font-size="22.7" fill="#FEFFFF" transform="matrix(1.00, 0.00, -0.00, -1.00, 487.7, 162.0)"> </text><text xml:space="preserve" font-family="Helvetica-Light" font-size="22.7" fill="#FEFFFF" transform="matrix(1.00, 0.00, -0.00, -1.00, 494.0, 162.0)">2</text><text xml:space="preserve" font-family="Helvetica-Light" font-size="22.7" fill="#FEFFFF" transform="matrix(1.00, 0.00, -0.00, -1.00, 506.6, 162.0)">1</text><text xml:space="preserve" font-family="Helvetica-Light" font-size="22.7" fill="#FEFFFF" transform="matrix(1.00, 0.00, -0.00, -1.00, 519.3, 162.0)">,</text><text xml:space="preserve" font-family="Helvetica-Light" font-size="22.7" fill="#FEFFFF" transform="matrix(1.00, 0.00, -0.00, -1.00, 525.6, 162.0)"> </text><text xml:space="preserve" font-family="Helvetica-Light" font-size="22.7" fill="#FEFFFF" transform="matrix(1.00, 0.00, -0.00, -1.00, 531.9, 162.0)">2</text><text xml:space="preserve" font-family="Helvetica-Light" font-size="22.7" fill="#FEFFFF" transform="matrix(1.00, 0.00, -0.00, -1.00, 544.5, 162.0)">0</text><text xml:space="preserve" font-family="Helvetica-Light" font-size="22.7" fill="#FEFFFF" transform="matrix(1.00, 0.00, -0.00, -1.00, 557.2, 162.0)">1</text><text xml:space="preserve" font-family="Helvetica-Light" font-size="22.7" fill="#FEFFFF" transform="matrix(1.00, 0.00, -0.00, -1.00, 569.8, 162.0)">5</text></g></svg>